Coordinates
version=1
nRows=116
nColumns=11
inDegrees=no

Units are S.I. units (second, meters, Newtons, ...)
If the header above contains a line with 'inDegrees', this indicates whether rotational values are in degrees (yes) or radians (no).

endheader
time	pelvis_tilt	pelvis_tx	pelvis_ty	hip_flexion_r	knee_angle_r	ankle_angle_r	hip_flexion_l	knee_angle_l	ankle_angle_l	lumbar_extension
210.67	0.0493385	0.167454	0.993597	-0.0760576	-0.831921	-0.13174	0.16328	-0.0435537	0.054808	0
210.68	0.0501396	0.167334	0.99614	-0.0350968	-0.890165	-0.226514	0.145546	-0.0401512	0.0673887	0
210.69	0.0477101	0.166995	0.998336	0.00766898	-0.943054	-0.299458	0.132363	-0.0383014	0.0799704	0
210.7	0.015349	0.161386	0.998224	0.0900356	-0.994525	-0.343816	0.15003	-0.0199145	0.0838904	0
210.71	0.0248287	0.162906	1.00138	0.110478	-1.03028	-0.352829	0.118719	-0.0110153	0.0932027	0
210.72	0.0152812	0.159891	1.00278	0.162327	-1.07316	-0.336072	0.111751	0.000848904	0.0963045	0
210.73	0.0256018	0.161216	1.00611	0.176977	-1.09201	-0.307831	0.0781531	0.0105603	0.107311	0
210.74	0.026302	0.160779	1.00788	0.20676	-1.11209	-0.256725	0.0562295	0.0238295	0.110553	0
210.75	0.0248071	0.15937	1.00949	0.238446	-1.12535	-0.206841	0.0436022	0.0253465	0.114615	0
210.76	0.0224961	0.157466	1.01099	0.271289	-1.13387	-0.16279	0.0327902	0.0260836	0.118195	0
210.77	0.020631	0.155707	1.01227	0.302078	-1.13628	-0.129097	0.0194108	0.0298479	0.123148	0
210.78	0.0183835	0.153962	1.01316	0.331395	-1.13211	-0.103904	0.007951	0.0313176	0.131998	0
210.79	0.00438917	0.149635	1.01237	0.380281	-1.13035	-0.0839198	0.0140788	0.0320637	0.137656	0
210.8	0.00425319	0.148048	1.01319	0.401987	-1.11295	-0.0673082	0.00190254	0.0312422	0.14514	0
210.81	0.00382701	0.14663	1.0138	0.423148	-1.09118	-0.0526843	-0.00868455	0.0288727	0.152874	0
210.82	0.0425716	0.152674	1.01721	0.385604	-1.05937	-0.0312485	-0.0672094	0.0164204	0.17253	0
210.83	0.00043804	0.143133	1.01356	0.463065	-1.0337	-0.00629251	-0.0263964	0.0219771	0.175769	0
210.84	-0.000865556	0.141934	1.01346	0.478837	-0.995942	0.0150569	-0.0370982	0.020507	0.181864	0
210.85	-0.0037819	0.140423	1.01309	0.494489	-0.952725	0.0327084	-0.0451378	0.0183261	0.190781	0
210.86	-0.00637367	0.138261	1.01235	0.505555	-0.904508	0.0444827	-0.0543477	0.0165716	0.20104	0
210.87	-0.00480424	0.13792	1.01178	0.508251	-0.84994	0.0548476	-0.0679364	0.0139041	0.211727	0
210.88	0.0120886	0.140884	1.01237	0.485627	-0.786525	0.0669937	-0.100435	0.00819897	0.229702	0
210.89	0.0135768	0.140422	1.01113	0.48513	-0.725381	0.0744571	-0.115751	0.00820925	0.242589	0
210.9	0.0149806	0.140002	1.00977	0.482174	-0.660238	0.0838784	-0.136155	0.0176511	0.248569	0
210.91	1.9435e-06	0.136758	1.00677	0.4997	-0.595033	0.0935969	-0.129637	0.0169752	0.253599	0
210.92	0.000200155	0.13667	1.00484	0.493429	-0.52437	0.0994167	-0.14153	0.0118284	0.267268	0
210.93	0.000688953	0.136582	1.00268	0.485673	-0.45276	0.104166	-0.157278	0.0128991	0.280648	0
210.94	0.00206698	0.136906	1.0005	0.47452	-0.379148	0.109213	-0.1763	0.0177239	0.289477	0
210.95	0.0189784	0.140292	0.999568	0.440507	-0.303987	0.117241	-0.215235	0.0210768	0.301375	0
210.96	0.021083	0.140896	0.997059	0.426505	-0.233712	0.125746	-0.232687	0.0209764	0.311839	0
210.97	0.0218756	0.141229	0.994495	0.415589	-0.170576	0.134902	-0.247597	0.0194324	0.32329	0
210.98	0.0210418	0.14137	0.99192	0.407727	-0.115733	0.146825	-0.261867	0.0213441	0.332881	0
210.99	0.00817297	0.139391	0.988335	0.416546	-0.0714056	0.151501	-0.258196	0.018249	0.33918	0
211	0.022964	0.142352	0.987247	0.386281	-0.0289516	0.16203	-0.286776	0.00675326	0.355996	0
211.01	0.0245602	0.143277	0.985188	0.375651	0.000239677	0.169321	-0.296871	-0.00665649	0.367675	0
211.02	0.0252743	0.143901	0.98326	0.369458	0.0143237	0.177745	-0.306492	-0.0182405	0.375228	0
211.03	0.025885	0.14452	0.981359	0.364794	0.0159236	0.185207	-0.315485	-0.0308643	0.379626	0
211.04	0.0277233	0.145897	0.980002	0.357765	0.00671978	0.186252	-0.324278	-0.0476059	0.381434	0
211.05	0.0307272	0.147626	0.97897	0.34944	-0.00931036	0.17958	-0.334519	-0.0646741	0.381742	0
211.06	0.0320699	0.148932	0.978369	0.345367	-0.0294558	0.162648	-0.339794	-0.0854971	0.3804	0
211.07	0.0307289	0.149661	0.978123	0.345149	-0.046998	0.140372	-0.336842	-0.11503	0.377747	0
211.08	0.0177347	0.148353	0.977273	0.357032	-0.0563358	0.115497	-0.317594	-0.146253	0.36548	0
211.09	0.0316545	0.152441	0.978511	0.328121	-0.0521061	0.0879631	-0.332027	-0.177664	0.357492	0
211.1	0.0327397	0.153861	0.979313	0.311513	-0.0440678	0.0480788	-0.332037	-0.207303	0.341159	0
211.11	0.0379298	0.156625	0.980632	0.292776	-0.0434698	0.00897365	-0.333995	-0.242432	0.31977	0
211.12	0.0436495	0.159621	0.982019	0.278013	-0.0518378	-0.0172368	-0.333241	-0.281913	0.29294	0
211.13	0.0474547	0.161952	0.983791	0.265492	-0.0613188	-0.0245955	-0.326392	-0.325977	0.26216	0
211.14	0.0502198	0.163677	0.985825	0.252046	-0.0679292	-0.0189418	-0.313724	-0.374662	0.22336	0
211.15	0.0533153	0.165538	0.988136	0.236085	-0.0729954	-0.0094819	-0.29715	-0.427638	0.173278	0
211.16	0.0572386	0.167466	0.990822	0.218079	-0.0774471	0.000410765	-0.275385	-0.486524	0.112385	0
211.17	0.0584279	0.168944	0.99337	0.202588	-0.0798602	0.011898	-0.245572	-0.547776	0.0436851	0
211.18	0.0589295	0.169788	0.995719	0.188557	-0.0831232	0.0234032	-0.209263	-0.615002	-0.0295587	0
211.19	0.0594654	0.170343	0.997876	0.171743	-0.080692	0.0337586	-0.169527	-0.685048	-0.105279	0
211.2	0.06007	0.170871	0.999894	0.153069	-0.0749259	0.0418757	-0.128907	-0.752127	-0.183599	0
211.21	0.0603446	0.171135	1.00165	0.135413	-0.069234	0.0510125	-0.0869307	-0.816439	-0.262635	0
211.22	0.059809	0.170767	1.00319	0.117867	-0.0618687	0.0610416	-0.0455555	-0.875343	-0.333574	0
211.23	0.0811998	0.173906	1.00591	0.078245	-0.0662348	0.074884	-0.0326691	-0.930678	-0.3956	0
211.24	0.0780048	0.173063	1.00693	0.0686002	-0.0671163	0.0917172	0.0114115	-0.983308	-0.421907	0
211.25	0.0740269	0.171652	1.00769	0.061587	-0.0709004	0.105527	0.0564811	-1.03346	-0.405575	0
211.26	0.0511475	0.167446	1.00781	0.0719806	-0.0601757	0.115158	0.122962	-1.07093	-0.369816	0
211.27	0.0502031	0.166734	1.00956	0.0566753	-0.0562485	0.123487	0.157917	-1.09954	-0.327227	0
211.28	0.0473199	0.16572	1.01091	0.0435911	-0.0522393	0.133209	0.194064	-1.12222	-0.280472	0
211.29	0.0342086	0.162466	1.01091	0.0443703	-0.0473676	0.139331	0.247231	-1.14636	-0.232058	0
211.3	0.0419846	0.163473	1.01321	0.0180641	-0.045961	0.150447	0.262111	-1.15036	-0.184321	0
211.31	0.0394966	0.162128	1.01429	0.00684838	-0.0456118	0.156463	0.294104	-1.15481	-0.1442	0
211.32	0.0271838	0.15875	1.01416	0.00912179	-0.0439471	0.161054	0.341326	-1.15803	-0.112437	0
211.33	0.0251035	0.158058	1.01489	-0.00133286	-0.0430488	0.169608	0.368659	-1.14736	-0.0870309	0
211.34	0.0223998	0.155664	1.01571	-0.0108331	-0.0458316	0.174364	0.392967	-1.13024	-0.0627545	0
211.35	0.0594748	0.161546	1.01952	-0.0680077	-0.0577305	0.187099	0.358357	-1.10084	-0.0474497	0
211.36	0.0325308	0.155702	1.01789	-0.0491164	-0.0503658	0.19503	0.413238	-1.07326	-0.0270392	0
211.37	0.0280107	0.153689	1.01758	-0.0534158	-0.0559165	0.20646	0.436045	-1.04213	-0.00832427	0
211.38	0.00972574	0.149247	1.01579	-0.0402088	-0.0594019	0.213179	0.479014	-1.01165	0.0114294	0
211.39	0.00663741	0.147974	1.01543	-0.0470377	-0.0638626	0.227008	0.493787	-0.966456	0.0291339	0
211.4	0.0175443	0.149053	1.01619	-0.0736509	-0.0676886	0.244788	0.483265	-0.91066	0.0419517	0
211.41	0.00236886	0.145052	1.01392	-0.0657404	-0.0698239	0.251562	0.511165	-0.860451	0.0514598	0
211.42	0.0154121	0.147351	1.014	-0.0952056	-0.0726829	0.265914	0.493572	-0.796882	0.0584572	0
211.43	0.015005	0.147071	1.01269	-0.108954	-0.0722733	0.274999	0.492953	-0.732386	0.0679666	0
211.44	0.0154895	0.147065	1.01121	-0.124499	-0.0708631	0.283871	0.489139	-0.663969	0.0725917	0
211.45	0.000567189	0.144065	1.00825	-0.118569	-0.0707005	0.289974	0.504514	-0.594208	0.072239	0
211.46	-0.000881327	0.143809	1.0062	-0.130744	-0.0701061	0.299868	0.497357	-0.517142	0.0692622	0
211.47	-0.00142538	0.143958	1.00382	-0.145626	-0.0683684	0.309575	0.4851	-0.435295	0.0687764	0
211.48	-0.0014108	0.144587	1.00132	-0.161663	-0.0678403	0.318756	0.468684	-0.351102	0.0706173	0
211.49	0.0134576	0.147928	0.999906	-0.197259	-0.0675768	0.329974	0.433396	-0.270315	0.073452	0
211.5	0.0132307	0.148185	0.996934	-0.212098	-0.0680713	0.343227	0.419238	-0.195168	0.0749498	0
211.51	-0.00308496	0.145436	0.992458	-0.204304	-0.0728246	0.355166	0.427527	-0.129574	0.0754818	0
211.52	0.0100849	0.149056	0.990747	-0.233722	-0.0777033	0.369692	0.397409	-0.0676657	0.0863369	0
211.53	0.0118513	0.149673	0.988239	-0.24874	-0.0832232	0.378893	0.382077	-0.015538	0.0949099	0
211.54	0.0107682	0.15002	0.985332	-0.257497	-0.091863	0.387016	0.372825	0.025337	0.103888	0
211.55	0.0107528	0.151138	0.982755	-0.267682	-0.102367	0.392641	0.362896	0.0546731	0.117776	0
211.56	0.0121579	0.152626	0.980278	-0.27964	-0.113298	0.3968	0.35203	0.0720372	0.130993	0
211.57	0.0137425	0.154062	0.978251	-0.289613	-0.128052	0.397915	0.344081	0.072496	0.137855	0
211.58	0.0139529	0.155325	0.97676	-0.29503	-0.146863	0.396842	0.338371	0.0623649	0.129208	0
211.59	0.0131849	0.156245	0.975286	-0.295981	-0.171253	0.396272	0.338144	0.0409639	0.111953	0
211.6	0.0126579	0.157367	0.97409	-0.296561	-0.196785	0.391918	0.340231	0.0159653	0.0921778	0
211.61	0.0126427	0.158818	0.973364	-0.296679	-0.224367	0.382913	0.335963	0.0051859	0.0638765	0
211.62	0.0126721	0.160146	0.973187	-0.294325	-0.255908	0.370051	0.325817	0.00492097	0.0267676	0
211.63	0.0143155	0.16229	0.973479	-0.293641	-0.288533	0.351074	0.309337	0.00898294	-0.00610404	0
211.64	0.0159394	0.164781	0.974138	-0.289253	-0.325673	0.326373	0.295392	0.00880481	-0.0327113	0
211.65	0.0174911	0.166948	0.975311	-0.279203	-0.371015	0.294826	0.285233	0.00265595	-0.0450817	0
211.66	0.0188015	0.168699	0.97687	-0.264456	-0.421786	0.255709	0.276805	-0.00849368	-0.0414793	0
211.67	0.0224649	0.170999	0.979154	-0.25042	-0.474622	0.20352	0.261656	-0.0166574	-0.0273556	0
211.68	0.023504	0.172396	0.9817	-0.227442	-0.532684	0.137503	0.249477	-0.0250218	-0.0103356	0
211.69	0.0251909	0.173751	0.984485	-0.198729	-0.594625	0.0637586	0.236291	-0.0324699	0.00440281	0
211.7	0.0274983	0.175475	0.987533	-0.168462	-0.655501	-0.0119184	0.217137	-0.0330395	0.0199217	0
211.71	0.0317444	0.17741	0.990846	-0.138031	-0.716725	-0.0848778	0.190201	-0.0250258	0.0320626	0
211.72	0.0337255	0.178571	0.993957	-0.101399	-0.779062	-0.161612	0.163934	-0.0112045	0.0373942	0
211.73	0.058364	0.181882	0.998299	-0.0918314	-0.84153	-0.23462	0.114295	-0.00830876	0.0455519	0
211.74	0.0601245	0.182388	1.00122	-0.0565172	-0.890831	-0.316295	0.0872211	0.00860527	0.0508768	0
211.75	0.0585757	0.181818	1.00372	-0.0166458	-0.94034	-0.357245	0.06775	0.0213593	0.0550931	0
211.76	0.0542852	0.180485	1.00571	0.0279501	-0.990318	-0.366595	0.0561346	0.0269587	0.0615564	0
211.77	0.0300258	0.176568	1.0062	0.0959075	-1.03138	-0.356713	0.067212	0.0389604	0.0682526	0
211.78	0.0296033	0.176134	1.00829	0.130716	-1.06504	-0.330068	0.0498629	0.0451814	0.0749075	0
211.79	0.0275889	0.175085	1.01021	0.166469	-1.09169	-0.290972	0.0336928	0.0544086	0.0756405	0
211.8	0.0257953	0.173807	1.01179	0.201377	-1.11341	-0.250002	0.0195486	0.058642	0.080086	0
211.81	0.0246353	0.172479	1.0135	0.233628	-1.12824	-0.211137	0.00557956	0.0620434	0.0833638	0
211.82	0.0231392	0.171257	1.01484	0.264891	-1.13792	-0.176473	-0.00735159	0.0648584	0.0881319	0
